<?xml version="1.0" encoding="UTF-8"?>
<svg width="102px" height="33px" viewBox="0 0 102 33" version="1.1" xmlns="http://www.w3.org/2000/svg" xmlns:xlink="http://www.w3.org/1999/xlink">
    <!-- Generator: Sketch 42 (36781) - http://www.bohemiancoding.com/sketch -->
    <title>levels</title>
    <desc>Created with Sketch.</desc>
    <defs></defs>
    <g id="Page-1" stroke="none" stroke-width="1" fill="none" fill-rule="evenodd">
        <g id="levels" fill-rule="nonzero" fill="#292B34">
            <path d="M41,8 C40.448,8 40,8.447 40,9 L40,23 C40,23.553 40.448,24 41,24 C41.552,24 42,23.553 42,23 L42,9 C42,8.447 41.552,8 41,8 Z M97,8 C96.448,8 96,8.447 96,9 L96,23 C96,23.553 96.448,24 97,24 C97.552,24 98,23.553 98,23 L98,9 C98,8.447 97.552,8 97,8 Z M85,8 C84.448,8 84,8.447 84,9 L84,23 C84,23.553 84.448,24 85,24 C85.552,24 86,23.553 86,23 L86,9 C86,8.447 85.552,8 85,8 Z M77,8 C76.448,8 76,8.447 76,9 L76,23 C76,23.553 76.448,24 77,24 C77.552,24 78,23.553 78,23 L78,9 C78,8.447 77.552,8 77,8 Z M101,8 C100.448,8 100,8.447 100,9 L100,23 C100,23.553 100.448,24 101,24 C101.552,24 102,23.553 102,23 L102,9 C102,8.447 101.552,8 101,8 Z M61,8 C60.448,8 60,8.447 60,9 L60,23 C60,23.553 60.448,24 61,24 C61.552,24 62,23.553 62,23 L62,9 C62,8.447 61.552,8 61,8 Z M57,8 C56.448,8 56,8.447 56,9 L56,23 C56,23.553 56.448,24 57,24 C57.552,24 58,23.553 58,23 L58,9 C58,8.447 57.552,8 57,8 Z M21,8 C20.448,8 20,8.447 20,9 L20,23 C20,23.553 20.448,24 21,24 C21.552,24 22,23.553 22,23 L22,9 C22,8.447 21.552,8 21,8 Z M5,8 C4.448,8 4,8.447 4,9 L4,23 C4,23.553 4.448,24 5,24 C5.552,24 6,23.553 6,23 L6,9 C6,8.447 5.552,8 5,8 Z M1,8 C0.448,8 0,8.447 0,9 L0,23 C0,23.553 0.448,24 1,24 C1.552,24 2,23.553 2,23 L2,9 C2,8.447 1.552,8 1,8 Z M13,12 C12.448,12 12,12.447 12,13 L12,19 C12,19.553 12.448,20 13,20 C13.552,20 14,19.553 14,19 L14,13 C14,12.447 13.552,12 13,12 Z M45,12 C44.448,12 44,12.447 44,13 L44,19 C44,19.553 44.448,20 45,20 C45.552,20 46,19.553 46,19 L46,13 C46,12.447 45.552,12 45,12 Z M49,12 C48.448,12 48,12.447 48,13 L48,19 C48,19.553 48.448,20 49,20 C49.552,20 50,19.553 50,19 L50,13 C50,12.447 49.552,12 49,12 Z M65,12 C64.448,12 64,12.447 64,13 L64,19 C64,19.553 64.448,20 65,20 C65.552,20 66,19.553 66,19 L66,13 C66,12.447 65.552,12 65,12 Z M69,12 C68.448,12 68,12.447 68,13 L68,19 C68,19.553 68.448,20 69,20 C69.552,20 70,19.553 70,19 L70,13 C70,12.447 69.552,12 69,12 Z M73,12 C72.448,12 72,12.447 72,13 L72,19 C72,19.553 72.448,20 73,20 C73.552,20 74,19.553 74,19 L74,13 C74,12.447 73.552,12 73,12 Z M89,12 C88.448,12 88,12.447 88,13 L88,19 C88,19.553 88.448,20 89,20 C89.552,20 90,19.553 90,19 L90,13 C90,12.447 89.552,12 89,12 Z M93,12 C92.448,12 92,12.447 92,13 L92,19 C92,19.553 92.448,20 93,20 C93.552,20 94,19.553 94,19 L94,13 C94,12.447 93.552,12 93,12 Z M73,12 C72.448,12 72,12.447 72,13 L72,19 C72,19.553 72.448,20 73,20 C73.552,20 74,19.553 74,19 L74,13 C74,12.447 73.552,12 73,12 Z M37,4 C36.448,4 36,4.447 36,5 L36,27 C36,27.553 36.448,28 37,28 C37.552,28 38,27.553 38,27 L38,5 C38,4.447 37.552,4 37,4 Z M29,4 C28.448,4 28,4.447 28,5 L28,27 C28,27.553 28.448,28 29,28 C29.552,28 30,27.553 30,27 L30,5 C30,4.447 29.552,4 29,4 Z M17,4 C16.448,4 16,4.447 16,5 L16,27 C16,27.553 16.448,28 17,28 C17.552,28 18,27.553 18,27 L18,5 C18,4.447 17.552,4 17,4 Z M33,0 C32.448,0 32,0.447 32,1 L32,31 C32,31.553 32.448,32 33,32 C33.552,32 34,31.553 34,31 L34,1 C34,0.447 33.552,0 33,0 Z M53,1 C52.448,1 52,1.447 52,2 L52,32 C52,32.553 52.448,33 53,33 C53.552,33 54,32.553 54,32 L54,2 C54,1.447 53.552,1 53,1 Z M9,1 C8.448,1 8,1.447 8,2 L8,32 C8,32.553 8.448,33 9,33 C9.552,33 10,32.553 10,32 L10,2 C10,1.447 9.552,1 9,1 Z M81,1 C80.448,1 80,1.447 80,2 L80,32 C80,32.553 80.448,33 81,33 C81.552,33 82,32.553 82,32 L82,2 C82,1.447 81.552,1 81,1 Z M25,0 C24.448,0 24,0.447 24,1 L24,31 C24,31.553 24.448,32 25,32 C25.552,32 26,31.553 26,31 L26,1 C26,0.447 25.552,0 25,0 Z" id="Shape"></path>
        </g>
    </g>
</svg>