<?xml version="1.0" encoding="UTF-8"?>
<svg width="66px" height="33px" viewBox="0 0 66 33" version="1.1" xmlns="http://www.w3.org/2000/svg" xmlns:xlink="http://www.w3.org/1999/xlink">
    <!-- Generator: Sketch 42 (36781) - http://www.bohemiancoding.com/sketch -->
    <title>levels</title>
    <desc>Created with Sketch.</desc>
    <defs></defs>
    <g id="Page-1" stroke="none" stroke-width="1" fill="none" fill-rule="evenodd">
        <g id="levels" fill-rule="nonzero" fill="#292B34">
            <path d="M29,8 C28.448,8 28,8.447 28,9 L28,23 C28,23.553 28.448,24 29,24 C29.552,24 30,23.553 30,23 L30,9 C30,8.447 29.552,8 29,8 Z M65,8 C64.448,8 64,8.447 64,9 L64,23 C64,23.553 64.448,24 65,24 C65.552,24 66,23.553 66,23 L66,9 C66,8.447 65.552,8 65,8 Z M49,8 C48.448,8 48,8.447 48,9 L48,23 C48,23.553 48.448,24 49,24 C49.552,24 50,23.553 50,23 L50,9 C50,8.447 49.552,8 49,8 Z M9,8 C8.448,8 8,8.447 8,9 L8,23 C8,23.553 8.448,24 9,24 C9.552,24 10,23.553 10,23 L10,9 C10,8.447 9.552,8 9,8 Z M1,12 C0.448,12 0,12.447 0,13 L0,19 C0,19.553 0.448,20 1,20 C1.552,20 2,19.553 2,19 L2,13 C2,12.447 1.552,12 1,12 Z M33,12 C32.448,12 32,12.447 32,13 L32,19 C32,19.553 32.448,20 33,20 C33.552,20 34,19.553 34,19 L34,13 C34,12.447 33.552,12 33,12 Z M37,12 C36.448,12 36,12.447 36,13 L36,19 C36,19.553 36.448,20 37,20 C37.552,20 38,19.553 38,19 L38,13 C38,12.447 37.552,12 37,12 Z M53,12 C52.448,12 52,12.447 52,13 L52,19 C52,19.553 52.448,20 53,20 C53.552,20 54,19.553 54,19 L54,13 C54,12.447 53.552,12 53,12 Z M57,12 C56.448,12 56,12.447 56,13 L56,19 C56,19.553 56.448,20 57,20 C57.552,20 58,19.553 58,19 L58,13 C58,12.447 57.552,12 57,12 Z M61,12 C60.448,12 60,12.447 60,13 L60,19 C60,19.553 60.448,20 61,20 C61.552,20 62,19.553 62,19 L62,13 C62,12.447 61.552,12 61,12 Z M25,4 C24.448,4 24,4.447 24,5 L24,27 C24,27.553 24.448,28 25,28 C25.552,28 26,27.553 26,27 L26,5 C26,4.447 25.552,4 25,4 Z M17,4 C16.448,4 16,4.447 16,5 L16,27 C16,27.553 16.448,28 17,28 C17.552,28 18,27.553 18,27 L18,5 C18,4.447 17.552,4 17,4 Z M5,4 C4.448,4 4,4.447 4,5 L4,27 C4,27.553 4.448,28 5,28 C5.552,28 6,27.553 6,27 L6,5 C6,4.447 5.552,4 5,4 Z M21,0 C20.448,0 20,0.447 20,1 L20,31 C20,31.553 20.448,32 21,32 C21.552,32 22,31.553 22,31 L22,1 C22,0.447 21.552,0 21,0 Z M41,1 C40.448,1 40,1.447 40,2 L40,32 C40,32.553 40.448,33 41,33 C41.552,33 42,32.553 42,32 L42,2 C42,1.447 41.552,1 41,1 Z M45,1 C44.448,1 44,1.447 44,2 L44,32 C44,32.553 44.448,33 45,33 C45.552,33 46,32.553 46,32 L46,2 C46,1.447 45.552,1 45,1 Z M13,0 C12.448,0 12,0.447 12,1 L12,31 C12,31.553 12.448,32 13,32 C13.552,32 14,31.553 14,31 L14,1 C14,0.447 13.552,0 13,0 Z" id="Shape"></path>
        </g>
    </g>
</svg>